<svg version="1.1" id="Layer_1" xmlns="http://www.w3.org/2000/svg" xmlns:xlink="http://www.w3.org/1999/xlink" x="0px" y="0px"
	 width="100%" viewBox="0 0 680 575" enable-background="new 0 0 680 575" xml:space="preserve">
<path fill="#2A2A2A" opacity="1.000000" stroke="none" 
	d="
M406.000000,576.000000 
	C270.666687,576.000000 135.833374,576.000000 1.000054,576.000000 
	C1.000036,384.333405 1.000036,192.666779 1.000018,1.000131 
	C227.666565,1.000088 454.333130,1.000088 680.999756,1.000044 
	C680.999878,192.666519 680.999878,384.333038 680.999939,575.999756 
	C589.500000,576.000000 498.000000,576.000000 406.000000,576.000000 
M574.102112,413.354004 
	C573.774475,409.428528 573.169983,405.503723 573.159973,401.577454 
	C572.947021,317.769806 572.815674,233.961960 572.629333,150.154236 
	C572.590759,132.829193 572.297791,115.504242 572.338684,98.179756 
	C572.349609,93.570763 570.837952,91.703629 566.016907,91.720985 
	C544.868347,91.797134 523.717896,91.658180 502.570770,91.385895 
	C499.934296,91.351952 497.068939,90.519180 494.727600,89.271927 
	C482.983612,83.015816 471.766876,75.626785 459.653595,70.233345 
	C420.112885,52.627853 378.400299,47.041985 335.571198,51.249382 
	C296.694366,55.068523 260.318115,66.719650 228.176056,89.818588 
	C226.371277,91.115585 223.591278,91.524529 221.258286,91.544571 
	C199.269714,91.733505 177.279312,91.832619 155.290283,91.745178 
	C150.573669,91.726425 149.243027,93.893661 149.258240,98.117661 
	C149.290604,107.113358 149.035706,116.109825 149.038376,125.105942 
	C149.065277,215.578079 149.131851,306.050232 149.138077,396.522369 
	C149.138443,401.670471 148.709885,406.818573 147.958191,411.177887 
	C146.606018,401.314850 145.405487,391.428040 143.865997,381.594330 
	C141.575577,366.964020 138.894669,352.393890 136.692810,337.751099 
	C135.826859,331.992493 133.005508,329.189331 127.246048,329.174225 
	C121.584564,329.159393 115.923241,329.084808 110.261856,329.035400 
	C107.033028,329.007233 105.649849,330.790833 106.015480,333.798126 
	C106.636841,338.908691 107.423157,344.000977 108.227814,349.087097 
	C111.111046,367.311493 115.220978,385.435974 116.671104,403.771912 
	C119.129326,434.854401 114.863297,465.575043 108.157875,495.964661 
	C107.342628,499.659424 105.672066,500.962341 102.077141,500.909180 
	C94.582512,500.798279 87.083061,500.860413 79.588623,501.006805 
	C77.891518,501.039948 76.206795,501.706909 74.516365,502.082153 
	C74.561943,502.646027 74.607521,503.209900 74.653091,503.773773 
	C76.852440,504.138428 79.044975,504.757538 81.252502,504.816650 
	C86.412613,504.954834 91.579933,504.803955 96.744316,504.805481 
	C274.171326,504.857666 451.598328,504.914154 629.025330,504.968414 
	C632.523071,504.969482 636.028381,505.079834 639.514893,504.876892 
	C640.880981,504.797363 642.205017,503.994781 643.548218,503.521484 
	C643.489929,503.062378 643.431702,502.603241 643.373413,502.144104 
	C641.660706,501.794281 639.954407,501.183289 638.234131,501.141083 
	C631.740540,500.981750 625.239990,500.889862 618.746887,501.016602 
	C615.810486,501.073914 613.980286,500.369141 613.531006,497.163635 
	C610.370361,474.613647 606.304565,452.150482 604.202393,429.504120 
	C602.317627,409.199280 605.868713,388.990814 609.528870,368.983063 
	C611.416016,358.667175 613.716553,348.427399 615.656677,338.120544 
	C617.014404,330.907410 615.558228,329.100677 608.665283,328.992889 
	C604.002380,328.919952 599.336121,328.989441 594.672363,329.059753 
	C587.513672,329.167664 586.174561,329.916718 585.157410,337.125397 
	C581.555298,362.652893 578.257568,388.223267 574.102112,413.354004 
z"/>
<path fill="#891E2E" opacity="1.000000" stroke="none" 
	d="
M574.844482,413.777405 
	C578.257568,388.223267 581.555298,362.652893 585.157410,337.125397 
	C586.174561,329.916718 587.513672,329.167664 594.672363,329.059753 
	C599.336121,328.989441 604.002380,328.919952 608.665283,328.992889 
	C615.558228,329.100677 617.014404,330.907410 615.656677,338.120544 
	C613.716553,348.427399 611.416016,358.667175 609.528870,368.983063 
	C605.868713,388.990814 602.317627,409.199280 604.202393,429.504120 
	C606.304565,452.150482 610.370361,474.613647 613.531006,497.163635 
	C613.980286,500.369141 615.810486,501.073914 618.746887,501.016602 
	C625.239990,500.889862 631.740540,500.981750 638.234131,501.141083 
	C639.954407,501.183289 641.660706,501.794281 643.373413,502.144104 
	C643.431702,502.603241 643.489929,503.062378 643.548218,503.521484 
	C642.205017,503.994781 640.880981,504.797363 639.514893,504.876892 
	C636.028381,505.079834 632.523071,504.969482 629.025330,504.968414 
	C451.598328,504.914154 274.171326,504.857666 96.744316,504.805481 
	C91.579933,504.803955 86.412613,504.954834 81.252502,504.816650 
	C79.044975,504.757538 76.852440,504.138428 74.653091,503.773773 
	C74.607521,503.209900 74.561943,502.646027 74.516365,502.082153 
	C76.206795,501.706909 77.891518,501.039948 79.588623,501.006805 
	C87.083061,500.860413 94.582512,500.798279 102.077141,500.909180 
	C105.672066,500.962341 107.342628,499.659424 108.157875,495.964661 
	C114.863297,465.575043 119.129326,434.854401 116.671104,403.771912 
	C115.220978,385.435974 111.111046,367.311493 108.227814,349.087097 
	C107.423157,344.000977 106.636841,338.908691 106.015480,333.798126 
	C105.649849,330.790833 107.033028,329.007233 110.261856,329.035400 
	C115.923241,329.084808 121.584564,329.159393 127.246048,329.174225 
	C133.005508,329.189331 135.826859,331.992493 136.692810,337.751099 
	C138.894669,352.393890 141.575577,366.964020 143.865997,381.594330 
	C145.405487,391.428040 146.606018,401.314850 148.175034,411.941254 
	C146.598297,412.813721 144.804733,412.922791 142.956696,412.612061 
	C141.900543,404.437836 141.092743,396.652313 139.856415,388.935455 
	C137.355774,373.327087 134.679672,357.745819 131.906982,342.183472 
	C131.590927,340.409454 130.417740,337.577881 129.262558,337.372681 
	C124.200897,336.473572 118.999557,336.360809 113.380287,335.926605 
	C113.726456,338.144928 113.858643,339.114868 114.030899,340.077637 
	C117.076012,357.096619 120.235016,374.096313 123.124107,391.141693 
	C124.370995,398.498260 125.061890,405.949036 125.905952,413.761658 
	C125.790794,418.033661 125.775032,421.901093 125.596771,426.076416 
	C125.956505,427.238373 126.478729,428.092407 127.461273,429.042908 
	C140.343872,429.128448 152.766357,429.155792 165.188400,429.095032 
	C176.105316,429.041656 187.021759,428.889557 198.245453,428.630249 
	C198.900833,426.692383 199.249161,424.905304 199.720367,422.729462 
	C200.226685,419.389557 200.610092,416.438446 201.108154,413.068054 
	C203.221634,400.514618 205.083542,388.355774 207.261795,376.253876 
	C209.063034,366.246582 209.435837,366.069733 219.528214,366.066010 
	C261.460510,366.050537 303.392822,366.064880 345.325134,366.040863 
	C347.980988,366.039368 350.636719,365.805023 353.703186,365.677307 
	C359.283325,365.407745 364.452820,365.139832 369.955383,365.172607 
	C374.081482,365.700989 377.874359,366.124634 381.667450,366.126282 
	C422.796112,366.144104 463.924744,366.079651 505.053406,366.079193 
	C513.088257,366.079132 514.575073,367.099945 515.662292,374.170990 
	C517.683777,387.318268 519.434570,400.507172 521.229919,414.089966 
	C521.825500,417.682648 522.489258,420.864075 523.063232,424.396362 
	C523.663330,426.101990 524.353210,427.456818 525.496460,428.928619 
	C547.916138,429.025269 569.882568,429.038605 591.848145,428.900665 
	C593.163025,428.892426 594.470215,427.674377 595.897339,426.576843 
	C595.957764,423.110321 595.901794,420.086212 595.917908,416.681396 
	C596.013489,415.527161 596.036987,414.753662 596.117004,413.570374 
	C596.590149,408.538422 596.705750,403.865479 597.475952,399.302979 
	C600.734558,379.999573 604.120178,360.716736 607.626587,341.456787 
	C608.332642,337.578674 607.538940,335.615143 603.285034,336.091125 
	C600.811462,336.367920 598.333130,336.907196 595.865662,336.861206 
	C592.276672,336.794281 590.745728,338.650330 590.279724,341.853180 
	C586.791931,365.823212 583.312988,389.794525 579.421875,413.837128 
	C577.623169,413.865021 576.233826,413.821198 574.844482,413.777405 
M479.994019,436.942108 
	C479.401367,453.698395 478.789551,470.454071 478.231140,487.211487 
	C478.109436,490.863434 477.951813,494.542755 478.287689,498.165253 
	C478.399292,499.368988 480.003601,500.434326 480.925476,501.562958 
	C481.653687,500.464935 482.624298,499.449738 483.036407,498.243683 
	C483.392548,497.201569 483.134460,495.942139 483.112762,494.779449 
	C482.746826,475.185944 482.375427,455.592590 482.321442,435.375458 
	C482.321442,429.481049 482.321442,423.586670 482.321442,417.692261 
	C481.673279,417.676239 481.025146,417.660217 480.376984,417.644196 
	C480.261627,423.768341 480.146301,429.892487 479.994019,436.942108 
M179.026306,496.248413 
	C179.035217,477.957031 178.949478,459.664764 179.125763,441.375000 
	C179.165237,437.277802 177.882874,435.711456 173.704422,435.895813 
	C167.563812,436.166718 161.395081,436.145691 155.252472,435.898254 
	C151.521515,435.747925 150.028214,437.043701 149.458817,440.807678 
	C146.627167,459.526428 143.569519,478.211792 140.458649,496.886780 
	C139.981689,499.749969 140.686996,500.935669 143.623489,500.921234 
	C154.099197,500.869690 164.575455,500.864929 175.051147,500.915436 
	C177.684982,500.928131 179.212875,500.031647 179.026306,496.248413 
M543.877258,488.485229 
	C543.868042,491.145996 543.969238,493.812958 543.820923,496.465973 
	C543.645752,499.598297 544.817444,501.020630 548.108704,500.984955 
	C558.085205,500.876740 568.063904,500.906799 578.041199,500.969391 
	C581.184143,500.989105 582.008057,499.773560 581.478271,496.660248 
	C578.218811,477.505341 575.188782,458.311096 571.827637,439.174652 
	C571.607117,437.919220 569.320496,436.199799 567.916016,436.122101 
	C561.781555,435.782745 555.606873,436.193573 549.468628,435.890594 
	C545.095642,435.674713 543.676758,437.201965 543.744629,441.591949 
	C543.981201,456.888062 543.862488,472.189606 543.877258,488.485229 
M117.886467,492.311615 
	C117.430893,494.994476 116.975319,497.677338 116.418343,500.957367 
	C120.396202,500.957367 123.537521,500.812012 126.659424,500.996094 
	C130.162979,501.202637 131.616501,499.745819 132.224457,496.267395 
	C135.057022,480.061127 138.310028,463.927643 141.075516,447.710632 
	C143.155624,435.512695 142.929871,435.559875 130.782181,435.812897 
	C127.575996,435.879700 126.168533,436.738007 125.684898,440.223297 
	C123.310562,457.333618 120.606033,474.398163 117.886467,492.311615 
M587.514954,435.907471 
	C584.920471,436.040192 582.325989,436.172913 579.943359,436.294769 
	C579.661194,437.167633 579.425659,437.505554 579.477722,437.791046 
	C583.083252,457.563629 586.668274,477.340332 590.433777,497.082581 
	C590.693237,498.442749 592.214417,500.477875 593.320618,500.596375 
	C597.308044,501.023621 601.368958,500.764313 605.747498,500.764313 
	C605.523315,499.020081 605.438416,498.220825 605.316040,497.427338 
	C602.482117,479.059326 599.552124,460.705475 596.857605,442.317078 
	C595.929810,435.985382 596.046997,435.830475 587.514954,435.907471 
M535.969666,497.290558 
	C535.979248,478.648499 536.064636,460.005646 535.878357,441.365540 
	C535.860168,439.545105 534.568481,436.714050 533.160706,436.164764 
	C530.911011,435.287018 528.067993,435.929871 524.855347,435.929871 
	C525.243286,439.148865 525.510986,442.073242 525.958740,444.969818 
	C528.550049,461.730927 531.156250,478.489929 533.871887,495.231110 
	C534.033813,496.229492 535.187439,497.067017 535.969666,497.290558 
M194.288773,457.892822 
	C195.389679,450.763031 196.490570,443.633240 197.585785,436.540314 
	C187.369354,434.794434 186.903519,435.161987 186.902359,444.260590 
	C186.900253,460.741730 186.912689,477.222870 186.918869,493.704010 
	C186.919540,495.503265 186.918945,497.302551 186.918945,499.101807 
	C187.319977,499.112305 187.721008,499.122803 188.122040,499.133301 
	C190.126617,485.674408 192.131210,472.215515 194.288773,457.892822 
M240.289093,460.870239 
	C240.180756,472.675781 240.052078,484.481262 239.993118,496.287048 
	C239.986679,497.578125 239.984863,499.200806 240.705338,500.067627 
	C241.381927,500.881744 243.774414,501.526947 244.089996,501.147400 
	C245.024490,500.023499 245.809998,498.341492 245.766876,496.904388 
	C245.164185,476.815887 244.452744,456.730255 243.674377,436.647583 
	C243.444946,430.728058 242.924316,424.819763 242.537125,418.906342 
	C241.655365,421.572845 241.219772,424.304108 241.143005,427.045410 
	C240.836014,438.008606 240.640442,448.974915 240.289093,460.870239 
z"/>
<path fill="#E5D8C6" opacity="1.000000" stroke="none" 
	d="
M596.060486,413.980103 
	C596.036987,414.753662 596.013489,415.527161 595.709961,417.011780 
	C595.298462,418.704590 594.947815,419.715240 595.072754,420.663177 
	C595.684631,425.305634 593.335266,426.145477 589.230591,426.110992 
	C569.303528,425.943512 549.373901,426.092621 529.446533,425.945404 
	C527.344116,425.929871 525.250610,424.707825 523.153015,424.045532 
	C522.489258,420.864075 521.825500,417.682648 521.607544,414.043701 
	C529.676270,413.586212 537.299194,413.586212 545.638794,413.586212 
	C545.638794,337.967041 545.638794,263.109131 545.638794,188.083923 
	C551.527222,187.749832 556.703186,187.456161 561.879150,187.162491 
	C561.854797,186.703613 561.830383,186.244736 561.806030,185.785858 
	C561.210327,185.647964 560.614990,185.392441 560.018982,185.390900 
	C555.522705,185.379211 551.006653,185.660446 546.541138,185.300201 
	C545.097961,185.183777 543.787415,183.423660 542.416199,182.415421 
	C543.603577,181.244156 544.681824,179.921509 546.018433,178.957153 
	C546.849854,178.357330 548.072571,178.299728 549.328979,177.938614 
	C543.395081,161.882324 535.803223,147.165039 526.036560,133.529800 
	C523.676453,130.234879 521.950317,129.373245 518.061218,131.453125 
	C504.645844,138.627716 490.138733,142.429031 474.967865,142.939056 
	C443.411499,143.999924 416.303986,132.862335 392.980194,111.973206 
	C388.795563,108.225372 384.850769,104.209763 380.775391,100.350876 
	C380.755524,100.383957 380.785858,100.454903 380.847534,100.130676 
	C379.956207,98.841843 379.003204,97.877235 378.032104,96.949097 
	C378.014008,96.985573 378.087250,97.021133 378.076965,96.661438 
	C377.709106,96.006516 377.351532,95.711296 376.988708,95.096542 
	C374.712006,90.568420 372.440552,86.359825 370.487061,82.264175 
	C375.448944,85.301796 380.176575,88.102516 384.723480,91.171013 
	C417.385651,113.213173 453.018799,125.509621 492.796448,124.047264 
	C500.342590,123.769836 507.864502,122.833008 516.504395,122.107483 
	C514.762451,119.921951 514.028503,118.877403 513.172241,117.945160 
	C499.117279,102.643311 482.559814,90.606110 463.748230,82.017372 
	C412.213470,58.488335 358.634033,53.812542 303.596039,66.454506 
	C268.184052,74.588478 236.408234,89.983055 210.402679,116.003067 
	C208.742859,117.663803 207.282043,119.523415 205.151779,121.946739 
	C210.221390,122.688385 214.144806,123.506676 218.107285,123.803757 
	C252.809021,126.405487 285.365265,118.834740 315.809265,102.321114 
	C327.503204,95.978035 338.648071,88.622719 349.997253,82.116043 
	C347.260803,87.945534 344.570221,93.387604 341.524384,98.863052 
	C335.761902,104.170120 330.628204,109.763535 324.900665,114.662743 
	C298.555328,137.197968 268.309784,147.547516 233.718658,141.560577 
	C221.578323,139.459366 209.852264,134.964478 197.022278,131.301422 
	C187.472885,145.127106 177.894028,160.489197 172.744675,178.493576 
	C174.450333,178.776703 175.534912,178.722900 176.382370,179.145096 
	C178.264618,180.082809 180.028076,181.259033 181.839951,182.338043 
	C179.836182,183.395889 177.886276,185.208557 175.817566,185.356186 
	C171.363632,185.673996 166.849594,185.047714 162.357986,184.995789 
	C160.843063,184.978271 159.321548,185.528305 157.803055,185.818954 
	C157.871399,186.407242 157.939728,186.995544 158.008057,187.583832 
	C164.046875,187.583832 170.085678,187.583832 177.075195,187.583832 
	C177.075195,263.251953 177.075195,338.096436 177.075195,413.487305 
	C185.696091,413.487305 193.344803,413.487305 200.993500,413.487305 
	C200.610092,416.438446 200.226685,419.389557 199.504684,423.004944 
	C197.922470,424.471405 196.679993,425.970459 195.435043,425.972504 
	C172.209961,426.010681 148.984589,425.870880 125.759277,425.768494 
	C125.775032,421.901093 125.790794,418.033661 126.383133,413.752533 
	C132.310196,413.236481 137.660675,413.134186 143.011154,413.031860 
	C144.804733,412.922791 146.598297,412.813721 148.436401,412.335632 
	C148.709885,406.818573 149.138443,401.670471 149.138077,396.522369 
	C149.131851,306.050232 149.065277,215.578079 149.038376,125.105942 
	C149.035706,116.109825 149.290604,107.113358 149.258240,98.117661 
	C149.243027,93.893661 150.573669,91.726425 155.290283,91.745178 
	C177.279312,91.832619 199.269714,91.733505 221.258286,91.544571 
	C223.591278,91.524529 226.371277,91.115585 228.176056,89.818588 
	C260.318115,66.719650 296.694366,55.068523 335.571198,51.249382 
	C378.400299,47.041985 420.112885,52.627853 459.653595,70.233345 
	C471.766876,75.626785 482.983612,83.015816 494.727600,89.271927 
	C497.068939,90.519180 499.934296,91.351952 502.570770,91.385895 
	C523.717896,91.658180 544.868347,91.797134 566.016907,91.720985 
	C570.837952,91.703629 572.349609,93.570763 572.338684,98.179756 
	C572.297791,115.504242 572.590759,132.829193 572.629333,150.154236 
	C572.815674,233.961960 572.947021,317.769806 573.159973,401.577454 
	C573.169983,405.503723 573.774475,409.428528 574.473267,413.565704 
	C576.233826,413.821198 577.623169,413.865021 579.902893,413.908569 
	C585.882324,413.932220 590.971436,413.956177 596.060486,413.980103 
M166.235748,175.934723 
	C175.464478,146.231613 192.750748,121.652382 215.589508,100.093132 
	C196.782745,100.093132 179.008713,100.029495 161.238953,100.274811 
	C160.318329,100.287506 158.677139,102.922188 158.646149,104.363571 
	C158.155777,127.160042 157.837448,149.960648 157.618225,172.761642 
	C157.601517,174.500198 158.406189,177.601181 159.208054,177.731171 
	C161.347000,178.077927 163.692719,177.149216 166.235748,175.934723 
M563.260864,166.485626 
	C563.102356,146.340942 562.763062,126.194908 562.913940,106.052551 
	C562.951050,101.089142 561.215759,99.770767 556.674377,99.760178 
	C540.859131,99.723312 525.044556,99.429413 509.229401,99.269745 
	C508.517487,99.262558 507.801971,99.611755 506.647827,99.907982 
	C507.544586,100.892120 508.049164,101.527321 508.634521,102.076477 
	C530.046143,122.164124 545.760620,145.972244 555.082275,173.846237 
	C556.615479,178.431122 558.735535,179.660614 563.266785,177.406326 
	C563.266785,174.100586 563.266785,170.790894 563.260864,166.485626 
M158.179504,365.499512 
	C158.208466,370.661835 158.258804,375.824127 158.261734,380.986450 
	C158.267120,390.478149 158.141647,399.972198 158.355148,409.458832 
	C158.384033,410.742310 160.055984,411.988770 160.967133,413.252380 
	C161.881851,411.968567 162.930481,410.754639 163.652695,409.370392 
	C163.994034,408.716156 163.712921,407.735718 163.709381,406.903107 
	C163.437897,343.124023 163.170044,279.344879 162.887985,215.565857 
	C162.858536,208.905258 162.707367,202.245148 162.685913,195.584579 
	C162.674911,192.170761 161.134689,191.136002 158.173050,192.103607 
	C158.173050,249.671692 158.173050,307.085602 158.179504,365.499512 
M557.334717,314.500000 
	C557.151367,343.995789 556.966064,373.491577 556.788452,402.987396 
	C556.774353,405.319946 556.507385,407.713165 556.951355,409.960999 
	C557.185364,411.146118 558.702820,412.077698 559.640747,413.123779 
	C560.461853,412.145081 561.392395,411.233704 562.054504,410.157227 
	C562.354309,409.669861 562.127625,408.854553 562.128540,408.188019 
	C562.226868,338.363800 562.324219,268.539581 562.421082,198.715363 
	C562.424194,196.475693 562.421509,194.236023 562.421509,191.825165 
	C557.065125,191.820312 558.080261,195.192398 558.062805,197.518341 
	C557.772827,236.178528 557.564392,274.839325 557.334717,314.500000 
z"/>
<path fill="#2C2B2B" opacity="1.000000" stroke="none" 
	d="
M201.108170,413.068054 
	C193.344803,413.487305 185.696091,413.487305 177.075195,413.487305 
	C177.075195,338.096436 177.075195,263.251953 177.075195,187.583832 
	C170.085678,187.583832 164.046875,187.583832 158.008057,187.583832 
	C157.939728,186.995544 157.871399,186.407242 157.803055,185.818954 
	C159.321548,185.528305 160.843063,184.978271 162.357986,184.995789 
	C166.849594,185.047714 171.363632,185.673996 175.817566,185.356186 
	C177.886276,185.208557 179.836182,183.395889 181.839951,182.338043 
	C180.028076,181.259033 178.264618,180.082809 176.382370,179.145096 
	C175.534912,178.722900 174.450333,178.776703 172.744675,178.493576 
	C177.894028,160.489197 187.472885,145.127106 197.022278,131.301422 
	C209.852264,134.964478 221.578323,139.459366 233.718658,141.560577 
	C268.309784,147.547516 298.555328,137.197968 324.900665,114.662743 
	C330.628204,109.763535 335.761902,104.170120 341.506256,99.229385 
	C331.421173,121.902092 316.328369,140.174866 294.053864,151.306046 
	C282.873932,156.892975 270.798920,160.808899 257.397156,155.571976 
	C257.260437,157.537674 257.016205,159.451584 257.011841,161.366074 
	C256.978333,176.009125 257.010468,190.652328 256.963593,205.295303 
	C256.958374,206.923111 257.168762,209.474167 256.289795,210.028656 
	C250.022629,213.982208 252.288773,219.941925 252.028961,225.635910 
	C250.291336,227.822372 248.364792,229.546341 247.257339,231.692902 
	C244.539291,236.961243 244.716660,242.251389 248.465668,247.079666 
	C251.868698,251.462387 257.659302,253.370468 262.648163,251.916016 
	C267.466248,250.511322 271.616333,245.231430 272.145630,239.625183 
	C272.734619,233.386917 269.940247,228.798737 265.051453,224.980972 
	C266.277740,219.217270 267.134552,213.973297 261.316254,210.413605 
	C260.567352,209.955399 260.173126,208.382187 260.168732,207.323196 
	C260.109589,193.003799 260.159607,178.683990 260.153290,164.364288 
	C260.152100,161.718719 261.386536,160.957718 263.938141,161.208817 
	C276.097717,162.405319 287.506226,159.530823 297.908600,153.499176 
	C305.727783,148.965363 312.952179,143.405838 320.783691,138.069687 
	C320.872742,139.654800 321.035034,141.236725 321.038940,142.819046 
	C321.072693,156.472916 321.028748,170.127213 321.126648,183.780518 
	C321.150574,187.115158 321.049774,189.816406 317.102661,191.287735 
	C315.637268,191.833969 314.512726,194.658783 314.198334,196.600815 
	C313.754089,199.345016 314.205841,202.234238 314.086456,205.360077 
	C312.679077,207.225876 311.193329,208.654236 310.290833,210.386475 
	C307.655151,215.445465 308.212006,220.441528 311.586761,224.942963 
	C314.887451,229.345612 319.538788,230.977905 324.863403,229.882126 
	C330.178467,228.788315 333.716187,225.441437 335.154205,220.135040 
	C336.983032,213.386597 333.784760,208.595764 328.939575,204.084167 
	C328.631348,199.504532 329.447845,194.643188 327.511810,191.451538 
	C325.992706,188.947250 324.824005,186.922226 324.828857,184.080597 
	C324.850739,171.291321 325.300262,158.480164 324.690765,145.720123 
	C324.263184,136.768906 325.886505,129.122421 332.361298,122.624718 
	C334.548950,120.429344 336.265442,117.617157 337.679047,114.824547 
	C342.541290,105.219269 347.311493,95.561127 351.814423,85.783897 
	C353.240875,82.686562 352.807739,82.487083 350.043121,81.728638 
	C338.648071,88.622719 327.503204,95.978035 315.809265,102.321114 
	C285.365265,118.834740 252.809021,126.405487 218.107285,123.803757 
	C214.144806,123.506676 210.221390,122.688385 205.151779,121.946739 
	C207.282043,119.523415 208.742859,117.663803 210.402679,116.003067 
	C236.408234,89.983055 268.184052,74.588478 303.596039,66.454506 
	C358.634033,53.812542 412.213470,58.488335 463.748230,82.017372 
	C482.559814,90.606110 499.117279,102.643311 513.172241,117.945160 
	C514.028503,118.877403 514.762451,119.921951 516.504395,122.107483 
	C507.864502,122.833008 500.342590,123.769836 492.796448,124.047264 
	C453.018799,125.509621 417.385651,113.213173 384.723480,91.171013 
	C380.176575,88.102516 375.448944,85.301796 370.247192,82.061752 
	C367.677673,83.931221 367.642090,84.263069 369.519745,88.798409 
	C375.545685,103.353676 383.461975,116.766319 393.444519,128.989487 
	C394.886719,130.755402 395.984222,133.383026 396.014954,135.628662 
	C396.238342,151.947006 396.161438,168.269669 396.131531,184.590881 
	C396.128815,186.063538 396.340546,188.266495 395.515381,188.890244 
	C389.813171,193.200394 391.127655,199.192551 390.983551,205.209167 
	C385.754272,209.345123 383.942047,214.253494 385.702545,220.430923 
	C387.307159,226.061279 391.282532,229.085022 396.765442,229.863693 
	C402.301697,230.649933 406.890808,228.557938 409.948883,223.695831 
	C413.883606,217.439865 412.080688,210.636551 405.079926,204.131622 
	C406.140930,199.110168 407.495056,194.110657 402.850983,190.921509 
	C400.326599,189.187973 399.800507,187.430923 399.809875,184.801544 
	C399.860901,170.473953 399.819214,156.146072 399.853149,141.818375 
	C399.856293,140.483414 400.165253,139.149170 400.399475,137.276840 
	C401.644012,138.172760 402.218414,138.504471 402.696014,138.941910 
	C418.110260,153.059753 435.600342,162.070572 457.150909,161.055618 
	C459.977112,160.922501 460.966705,162.246719 460.955902,164.947220 
	C460.900543,178.774963 460.949158,192.603165 460.891571,206.430893 
	C460.886230,207.716995 460.840424,209.565552 460.050415,210.194336 
	C454.962341,214.244186 456.239960,219.744690 456.131836,225.319305 
	C454.816528,227.046616 453.542847,228.370712 452.508698,229.861008 
	C448.667084,235.397171 449.061829,243.233002 453.336884,247.993057 
	C457.198059,252.292328 464.132538,253.500595 469.413788,250.794373 
	C474.664551,248.103775 477.983093,241.324203 475.990234,234.987213 
	C474.872620,231.433350 471.805969,228.492432 469.652832,224.806732 
	C469.730713,219.958359 471.597931,214.790863 467.112610,211.880768 
	C464.233490,210.012772 464.038055,208.022354 464.041534,205.315002 
	C464.060577,190.484009 464.046204,175.652908 464.002197,160.821991 
	C463.997070,159.100983 463.738129,157.380753 463.623199,155.980743 
	C459.643524,156.706436 456.219482,158.118622 452.995819,157.754852 
	C446.261444,156.994888 439.286011,156.208572 433.022278,153.823837 
	C409.013702,144.683273 393.654236,126.103470 381.341858,104.531288 
	C380.692413,103.393456 380.956451,101.734276 380.795227,100.317795 
	C384.850769,104.209763 388.795563,108.225372 392.980194,111.973206 
	C416.303986,132.862335 443.411499,143.999924 474.967865,142.939056 
	C490.138733,142.429031 504.645844,138.627716 518.061218,131.453125 
	C521.950317,129.373245 523.676453,130.234879 526.036560,133.529800 
	C535.803223,147.165039 543.395081,161.882324 549.328979,177.938614 
	C548.072571,178.299728 546.849854,178.357330 546.018433,178.957153 
	C544.681824,179.921509 543.603577,181.244156 542.416199,182.415421 
	C543.787415,183.423660 545.097961,185.183777 546.541138,185.300201 
	C551.006653,185.660446 555.522705,185.379211 560.018982,185.390900 
	C560.614990,185.392441 561.210327,185.647964 561.806030,185.785858 
	C561.830383,186.244736 561.854797,186.703613 561.879150,187.162491 
	C556.703186,187.456161 551.527222,187.749832 545.638794,188.083923 
	C545.638794,263.109131 545.638794,337.967041 545.638794,413.586212 
	C537.299194,413.586212 529.676270,413.586212 521.675720,413.632477 
	C519.434570,400.507172 517.683777,387.318268 515.662292,374.170990 
	C514.575073,367.099945 513.088257,366.079132 505.053406,366.079193 
	C463.924744,366.079651 422.796112,366.144104 381.667450,366.126282 
	C377.874359,366.124634 374.081482,365.700989 370.170929,364.875244 
	C380.507538,359.077667 385.228241,347.457642 381.127991,337.016785 
	C376.910889,326.278198 365.452911,320.500000 354.770233,323.724609 
	C343.377899,327.163452 336.832733,337.795837 339.263550,349.264526 
	C340.946350,357.204010 346.102692,362.354675 353.292511,365.678986 
	C350.636719,365.805023 347.980988,366.039368 345.325134,366.040863 
	C303.392822,366.064880 261.460510,366.050537 219.528214,366.066010 
	C209.435837,366.069733 209.063034,366.246582 207.261795,376.253876 
	C205.083542,388.355774 203.221634,400.514618 201.108170,413.068054 
M256.256409,357.120178 
	C256.242615,354.798584 256.259888,352.476318 256.208038,350.155579 
	C256.119812,346.209015 255.779785,342.595612 260.323517,340.070435 
	C263.778259,338.150482 265.195374,329.876404 263.616302,326.302216 
	C261.683624,321.927643 257.547333,323.052063 254.057190,322.797974 
	C252.255646,322.666840 250.370575,322.775787 248.618820,323.185181 
	C247.438599,323.460968 246.004242,324.195831 245.413269,325.168610 
	C243.289078,328.665131 245.005127,338.412506 248.589844,340.234680 
	C252.861710,342.406097 253.355835,345.513245 253.039810,349.547729 
	C252.820267,352.350769 253.002136,355.185272 252.066406,358.022552 
	C246.756882,358.031982 241.446854,358.000702 236.138016,358.066254 
	C232.991592,358.105133 229.813004,358.071594 226.719833,358.539642 
	C225.611435,358.707367 224.711349,360.251801 223.716202,361.167908 
	C224.768433,361.784302 225.757721,362.730225 226.886505,362.945801 
	C228.987930,363.347168 231.172821,363.480988 233.319077,363.450592 
	C247.214630,363.253784 261.109100,362.982635 275.934052,362.842133 
	C282.535004,362.573456 289.345947,364.051331 295.659302,361.390228 
	C295.662445,360.945221 295.665588,360.500214 295.668732,360.055206 
	C293.833466,359.538971 291.998230,359.022736 289.528107,358.327911 
	C289.528107,354.044952 289.447876,349.575378 289.589691,345.112885 
	C289.621490,344.112244 290.172974,342.580994 290.921021,342.234253 
	C299.017303,338.481598 299.264282,331.417358 299.015991,323.989532 
	C298.746185,315.917542 297.867065,314.890778 289.821777,314.262024 
	C276.664581,313.233673 274.152039,315.774292 274.950592,328.937042 
	C275.337128,335.308685 277.466766,340.236877 284.163788,342.222504 
	C284.969757,342.461487 285.960571,343.788025 285.992462,344.643097 
	C286.169861,349.395020 286.077545,354.157013 286.077545,359.287964 
	C282.017975,359.287964 278.692505,359.287964 274.556458,358.937531 
	C268.407928,358.617035 262.259369,358.296539 256.256409,357.120178 
M470.299713,357.165222 
	C470.396545,355.838654 470.598724,354.509918 470.571777,353.185852 
	C470.461884,347.788574 470.022369,342.817261 475.618225,338.842224 
	C479.486694,336.094238 480.494690,330.063263 477.783478,326.125305 
	C476.183075,323.800720 471.218353,323.644196 467.688934,322.864136 
	C466.136871,322.521118 464.320343,322.811371 462.757233,323.269318 
	C461.621704,323.601959 460.330170,324.467224 459.757141,325.466949 
	C457.505981,329.394348 458.684326,337.993988 462.518860,340.119476 
	C466.914703,342.556000 467.225128,345.865509 466.986725,349.984680 
	C466.833374,352.634552 467.033875,355.304962 466.131378,357.998077 
	C459.398407,358.437134 452.665466,358.876190 445.018158,359.214478 
	C442.575958,359.087891 440.133759,358.961273 437.383362,358.818695 
	C437.383362,354.111389 437.314850,349.799469 437.432281,345.492584 
	C437.461060,344.436462 437.800598,342.778900 438.499542,342.443024 
	C448.025604,337.865326 446.642670,329.300079 446.382629,321.198639 
	C446.250793,317.089966 443.794586,314.807983 439.798370,314.366669 
	C437.498169,314.112640 435.143768,314.073730 432.833954,314.232208 
	C424.874786,314.778229 423.683380,316.089844 423.680298,323.896332 
	C423.679474,326.059418 423.643341,328.224731 423.725739,330.385101 
	C423.925903,335.633545 426.105286,339.581726 431.076538,341.861328 
	C432.241119,342.395325 433.853394,343.617279 433.915863,344.607483 
	C434.214081,349.336060 434.049500,354.093811 434.049500,358.635284 
	C430.458405,359.061951 427.585663,359.403259 424.712952,359.744568 
	C429.305023,363.307770 432.280243,363.571777 447.050751,362.934753 
	C461.174866,363.248169 475.298309,363.605377 489.423828,363.831116 
	C491.726898,363.867920 494.077454,363.488770 496.328613,362.967529 
	C497.229309,362.758972 497.920532,361.645935 498.707123,360.944611 
	C497.975159,360.138763 497.379242,358.910309 496.480957,358.621185 
	C494.943481,358.126343 493.217987,358.103394 491.569275,358.085693 
	C484.416351,358.008911 477.262634,358.005676 470.299713,357.165222 
M367.075409,280.791443 
	C380.279480,272.334320 380.049286,262.040436 366.999512,253.222168 
	C361.194244,249.299316 356.511749,248.098724 350.706207,253.120132 
	C347.129242,256.213989 343.263245,258.455811 342.899139,263.899994 
	C341.895874,278.901337 352.261230,286.591797 367.075409,280.791443 
M348.502899,287.221893 
	C345.692902,278.643677 340.277588,274.192200 332.455505,274.030670 
	C326.232361,273.902161 317.795746,280.128326 315.695038,287.010345 
	C314.973572,289.373810 315.026001,292.411072 315.861969,294.730743 
	C318.415802,301.817627 327.560913,306.852875 334.277557,305.388977 
	C343.969666,303.276581 348.901031,297.317078 348.502899,287.221893 
M394.446564,278.233002 
	C390.342438,279.616455 386.238312,280.999908 381.748138,282.513489 
	C382.062134,282.784088 381.847321,282.488770 381.559326,282.368286 
	C379.155518,281.362305 376.737152,279.680786 374.325470,279.684540 
	C372.992279,279.686584 370.269043,283.019806 370.611572,283.992035 
	C371.422974,286.295135 373.741089,288.045532 375.351227,290.096954 
	C376.377136,291.403961 377.701019,292.733002 378.074982,294.252991 
	C379.998627,302.072113 384.411469,306.471161 391.358856,307.059998 
	C399.229645,307.727112 407.503998,303.150482 410.135345,296.584991 
	C410.484406,295.714111 410.793396,294.483246 410.445953,293.730774 
	C407.236908,286.781281 404.420227,279.365479 394.446564,278.233002 
M360.600433,311.044250 
	C362.694122,309.715607 364.702881,308.222717 366.896790,307.087738 
	C374.911621,302.941498 375.562958,300.258301 370.208374,292.779816 
	C367.759583,289.359680 364.821442,286.706268 360.264038,287.574310 
	C356.026733,288.381378 352.338074,292.935272 352.113953,297.829163 
	C351.971161,300.946564 352.690308,304.094574 352.760193,307.234680 
	C352.790894,308.613007 352.589111,310.582886 351.715454,311.222870 
	C350.911743,311.811584 348.963257,311.224640 347.703033,310.707458 
	C346.032349,310.021820 344.633636,308.447266 342.944275,308.099945 
	C341.397614,307.781982 338.992615,308.034515 338.105347,309.040558 
	C337.035126,310.254120 336.385956,312.802216 336.911865,314.294250 
	C339.249695,320.926758 347.573425,323.052917 352.975983,318.532288 
	C355.517426,316.405731 357.729858,313.885925 360.600433,311.044250 
M397.379211,268.815735 
	C399.121979,264.288666 397.880737,261.872864 393.257904,262.136078 
	C390.249664,262.307404 387.198639,263.592621 384.389069,264.868317 
	C381.515289,266.173187 379.611938,269.223389 381.534088,271.728668 
	C382.930908,273.549225 386.727081,274.771912 389.065918,274.307861 
	C391.904999,273.744537 394.336487,271.127136 397.379211,268.815735 
M375.831940,319.553345 
	C377.016571,318.654633 378.349304,317.895355 379.354614,316.827759 
	C381.366638,314.691132 383.153320,312.181671 380.721649,309.395142 
	C378.391388,306.724884 375.493286,306.899536 372.680939,308.923401 
	C371.737671,309.602234 370.412262,310.073761 369.919983,310.992767 
	C368.625641,313.409027 366.212280,316.613312 366.938324,318.422943 
	C368.271210,321.745148 371.987701,321.454010 375.831940,319.553345 
M330.841431,315.169373 
	C330.944733,310.388550 327.921814,309.426270 324.222900,310.384918 
	C321.729248,311.031158 319.073792,312.297180 317.305603,314.089752 
	C315.982422,315.431213 315.082764,318.352142 315.644958,320.010162 
	C316.066101,321.252258 319.596954,322.707306 320.900848,322.138031 
	C324.395264,320.612427 327.436920,318.049774 330.841431,315.169373 
M390.037384,311.608368 
	C388.334747,312.514343 386.036163,313.037994 385.127899,314.453613 
	C384.464020,315.488373 385.091339,318.213257 386.101135,319.264343 
	C387.741272,320.971619 390.037994,322.335876 392.307404,323.042664 
	C393.661774,323.464478 396.147644,322.848114 396.933014,321.802887 
	C397.790222,320.662018 398.011078,317.878479 397.197784,316.889160 
	C395.500458,314.824554 392.939911,313.469574 390.037384,311.608368 
M333.058075,258.520630 
	C329.841614,257.718536 326.916412,258.774048 326.661926,261.953918 
	C326.530212,263.599823 328.994537,266.080627 330.874481,267.129852 
	C334.785828,269.312744 340.263763,267.848938 340.625549,264.752411 
	C341.187744,259.940399 337.135925,259.566956 333.058075,258.520630 
z"/>
<path fill="#2C2A2A" opacity="1.000000" stroke="none" 
	d="
M179.026459,496.712341 
	C179.212875,500.031647 177.684982,500.928131 175.051147,500.915436 
	C164.575455,500.864929 154.099197,500.869690 143.623489,500.921234 
	C140.686996,500.935669 139.981689,499.749969 140.458649,496.886780 
	C143.569519,478.211792 146.627167,459.526428 149.458817,440.807678 
	C150.028214,437.043701 151.521515,435.747925 155.252472,435.898254 
	C161.395081,436.145691 167.563812,436.166718 173.704422,435.895813 
	C177.882874,435.711456 179.165237,437.277802 179.125763,441.375000 
	C178.949478,459.664764 179.035217,477.957031 179.026459,496.712341 
z"/>
<path fill="#2B2A2A" opacity="1.000000" stroke="none" 
	d="
M543.878052,487.987183 
	C543.862488,472.189606 543.981201,456.888062 543.744629,441.591949 
	C543.676758,437.201965 545.095642,435.674713 549.468628,435.890594 
	C555.606873,436.193573 561.781555,435.782745 567.916016,436.122101 
	C569.320496,436.199799 571.607117,437.919220 571.827637,439.174652 
	C575.188782,458.311096 578.218811,477.505341 581.478271,496.660248 
	C582.008057,499.773560 581.184143,500.989105 578.041199,500.969391 
	C568.063904,500.906799 558.085205,500.876740 548.108704,500.984955 
	C544.817444,501.020630 543.645752,499.598297 543.820923,496.465973 
	C543.969238,493.812958 543.868042,491.145996 543.878052,487.987183 
z"/>
<path fill="#EADCC9" opacity="1.000000" stroke="none" 
	d="
M353.703186,365.677307 
	C346.102692,362.354675 340.946350,357.204010 339.263550,349.264526 
	C336.832733,337.795837 343.377899,327.163452 354.770233,323.724609 
	C365.452911,320.500000 376.910889,326.278198 381.127991,337.016785 
	C385.228241,347.457642 380.507538,359.077667 369.837830,364.574524 
	C364.452820,365.139832 359.283325,365.407745 353.703186,365.677307 
z"/>
<path fill="#2D2A2A" opacity="1.000000" stroke="none" 
	d="
M142.956696,412.612061 
	C137.660675,413.134186 132.310196,413.236481 126.482544,413.347900 
	C125.061890,405.949036 124.370995,398.498260 123.124107,391.141693 
	C120.235016,374.096313 117.076012,357.096619 114.030899,340.077637 
	C113.858643,339.114868 113.726456,338.144928 113.380287,335.926605 
	C118.999557,336.360809 124.200897,336.473572 129.262558,337.372681 
	C130.417740,337.577881 131.590927,340.409454 131.906982,342.183472 
	C134.679672,357.745819 137.355774,373.327087 139.856415,388.935455 
	C141.092743,396.652313 141.900543,404.437836 142.956696,412.612061 
z"/>
<path fill="#2D2A2A" opacity="1.000000" stroke="none" 
	d="
M596.117004,413.570343 
	C590.971436,413.956177 585.882324,413.932220 580.312256,413.836853 
	C583.312988,389.794525 586.791931,365.823212 590.279724,341.853180 
	C590.745728,338.650330 592.276672,336.794281 595.865662,336.861206 
	C598.333130,336.907196 600.811462,336.367920 603.285034,336.091125 
	C607.538940,335.615143 608.332642,337.578674 607.626587,341.456787 
	C604.120178,360.716736 600.734558,379.999573 597.475952,399.302979 
	C596.705750,403.865479 596.590149,408.538422 596.117004,413.570343 
z"/>
<path fill="#2D2A2A" opacity="1.000000" stroke="none" 
	d="
M117.952309,491.895233 
	C120.606033,474.398163 123.310562,457.333618 125.684898,440.223297 
	C126.168533,436.738007 127.575996,435.879700 130.782181,435.812897 
	C142.929871,435.559875 143.155624,435.512695 141.075516,447.710632 
	C138.310028,463.927643 135.057022,480.061127 132.224457,496.267395 
	C131.616501,499.745819 130.162979,501.202637 126.659424,500.996094 
	C123.537521,500.812012 120.396202,500.957367 116.418343,500.957367 
	C116.975319,497.677338 117.430893,494.994476 117.952309,491.895233 
z"/>
<path fill="#2D2A2A" opacity="1.000000" stroke="none" 
	d="
M587.985474,435.898804 
	C596.046997,435.830475 595.929810,435.985382 596.857605,442.317078 
	C599.552124,460.705475 602.482117,479.059326 605.316040,497.427338 
	C605.438416,498.220825 605.523315,499.020081 605.747498,500.764313 
	C601.368958,500.764313 597.308044,501.023621 593.320618,500.596375 
	C592.214417,500.477875 590.693237,498.442749 590.433777,497.082581 
	C586.668274,477.340332 583.083252,457.563629 579.477722,437.791046 
	C579.425659,437.505554 579.661194,437.167633 579.943359,436.294769 
	C582.325989,436.172913 584.920471,436.040192 587.985474,435.898804 
z"/>
<path fill="#30292A" opacity="1.000000" stroke="none" 
	d="
M535.924561,497.634979 
	C535.187439,497.067017 534.033813,496.229492 533.871887,495.231110 
	C531.156250,478.489929 528.550049,461.730927 525.958740,444.969818 
	C525.510986,442.073242 525.243286,439.148865 524.855347,435.929871 
	C528.067993,435.929871 530.911011,435.287018 533.160706,436.164764 
	C534.568481,436.714050 535.860168,439.545105 535.878357,441.365540 
	C536.064636,460.005646 535.979248,478.648499 535.924561,497.634979 
z"/>
<path fill="#30292A" opacity="1.000000" stroke="none" 
	d="
M194.212280,458.324707 
	C192.131210,472.215515 190.126617,485.674408 188.122040,499.133301 
	C187.721008,499.122803 187.319977,499.112305 186.918945,499.101807 
	C186.918945,497.302551 186.919540,495.503265 186.918869,493.704010 
	C186.912689,477.222870 186.900253,460.741730 186.902359,444.260590 
	C186.903519,435.161987 187.369354,434.794434 197.585785,436.540314 
	C196.490570,443.633240 195.389679,450.763031 194.212280,458.324707 
z"/>
<path fill="#38282B" opacity="1.000000" stroke="none" 
	d="
M240.346375,460.405151 
	C240.640442,448.974915 240.836014,438.008606 241.143005,427.045410 
	C241.219772,424.304108 241.655365,421.572845 242.537125,418.906342 
	C242.924316,424.819763 243.444946,430.728058 243.674377,436.647583 
	C244.452744,456.730255 245.164185,476.815887 245.766876,496.904388 
	C245.809998,498.341492 245.024490,500.023499 244.089996,501.147400 
	C243.774414,501.526947 241.381927,500.881744 240.705338,500.067627 
	C239.984863,499.200806 239.986679,497.578125 239.993118,496.287048 
	C240.052078,484.481262 240.180756,472.675781 240.346375,460.405151 
z"/>
<path fill="#30292A" opacity="1.000000" stroke="none" 
	d="
M482.005219,435.999207 
	C482.375427,455.592590 482.746826,475.185944 483.112762,494.779449 
	C483.134460,495.942139 483.392548,497.201569 483.036407,498.243683 
	C482.624298,499.449738 481.653687,500.464935 480.925476,501.562958 
	C480.003601,500.434326 478.399292,499.368988 478.287689,498.165253 
	C477.951813,494.542755 478.109436,490.863434 478.231140,487.211487 
	C478.789551,470.454071 479.401367,453.698395 480.341248,436.474701 
	C481.127380,436.004578 481.566284,436.001892 482.005219,435.999207 
z"/>
<path fill="#D9BCB0" opacity="1.000000" stroke="none" 
	d="
M197.938400,428.781067 
	C187.021759,428.889557 176.105316,429.041656 165.188400,429.095032 
	C152.766357,429.155792 140.343872,429.128448 127.617210,428.683411 
	C128.668228,427.801819 130.022171,427.010773 131.379196,427.005432 
	C152.173309,426.923706 172.967987,426.909088 193.761795,427.020325 
	C195.157104,427.027771 196.546341,428.167816 197.938400,428.781067 
z"/>
<path fill="#D9BCB0" opacity="1.000000" stroke="none" 
	d="
M595.781006,427.019287 
	C594.470215,427.674377 593.163025,428.892426 591.848145,428.900665 
	C569.882568,429.038605 547.916138,429.025269 525.676819,428.595642 
	C527.110657,427.760284 528.816589,427.044739 530.524536,427.039551 
	C552.276550,426.973480 574.028809,427.009338 595.781006,427.019287 
z"/>
<path fill="#D19FA1" opacity="1.000000" stroke="none" 
	d="
M595.897339,426.576843 
	C574.028809,427.009338 552.276550,426.973480 530.524536,427.039551 
	C528.816589,427.044739 527.110657,427.760284 525.223511,428.478638 
	C524.353210,427.456818 523.663330,426.101990 523.063232,424.396362 
	C525.250610,424.707825 527.344116,425.929871 529.446533,425.945404 
	C549.373901,426.092621 569.303528,425.943512 589.230591,426.110992 
	C593.335266,426.145477 595.684631,425.305634 595.072754,420.663177 
	C594.947815,419.715240 595.298462,418.704590 595.637817,417.392456 
	C595.901794,420.086212 595.957764,423.110321 595.897339,426.576843 
z"/>
<path fill="#CF919A" opacity="1.000000" stroke="none" 
	d="
M198.245453,428.630249 
	C196.546341,428.167816 195.157104,427.027771 193.761795,427.020325 
	C172.967987,426.909088 152.173309,426.923706 131.379196,427.005432 
	C130.022171,427.010773 128.668228,427.801819 127.156898,428.586884 
	C126.478729,428.092407 125.956505,427.238373 125.596771,426.076416 
	C148.984589,425.870880 172.209961,426.010681 195.435043,425.972504 
	C196.679993,425.970459 197.922470,424.471405 199.381790,423.393707 
	C199.249161,424.905304 198.900833,426.692383 198.245453,428.630249 
z"/>
<path fill="#4D262B" opacity="1.000000" stroke="none" 
	d="
M482.163330,435.687317 
	C481.566284,436.001892 481.127380,436.004578 480.359711,436.011963 
	C480.146301,429.892487 480.261627,423.768341 480.376984,417.644196 
	C481.025146,417.660217 481.673279,417.676239 482.321442,417.692261 
	C482.321442,423.586670 482.321442,429.481049 482.163330,435.687317 
z"/>
<path fill="#2f2f2e" opacity="1.000000" stroke="none" 
	d="
M166.096008,176.331116 
	C163.692719,177.149216 161.347000,178.077927 159.208054,177.731171 
	C158.406189,177.601181 157.601517,174.500198 157.618225,172.761642 
	C157.837448,149.960648 158.155777,127.160042 158.646149,104.363571 
	C158.677139,102.922188 160.318329,100.287506 161.238953,100.274811 
	C179.008713,100.029495 196.782745,100.093132 215.589508,100.093132 
	C192.750748,121.652382 175.464478,146.231613 166.096008,176.331116 
z"/>
<path fill="#2F2E2E" opacity="1.000000" stroke="none" 
	d="
M563.263794,166.983414 
	C563.266785,170.790894 563.266785,174.100586 563.266785,177.406326 
	C558.735535,179.660614 556.615479,178.431122 555.082275,173.846237 
	C545.760620,145.972244 530.046143,122.164124 508.634521,102.076477 
	C508.049164,101.527321 507.544586,100.892120 506.647827,99.907982 
	C507.801971,99.611755 508.517487,99.262558 509.229401,99.269745 
	C525.044556,99.429413 540.859131,99.723312 556.674377,99.760178 
	C561.215759,99.770767 562.951050,101.089142 562.913940,106.052551 
	C562.763062,126.194908 563.102356,146.340942 563.263794,166.983414 
z"/>
<path fill="#83202F" opacity="1.000000" stroke="none" 
	d="
M349.997253,82.116051 
	C352.807739,82.487083 353.240875,82.686562 351.814423,85.783897 
	C347.311493,95.561127 342.541290,105.219269 337.679047,114.824547 
	C336.265442,117.617157 334.548950,120.429344 332.361298,122.624718 
	C325.886505,129.122421 324.263184,136.768906 324.690765,145.720123 
	C325.300262,158.480164 324.850739,171.291321 324.828857,184.080597 
	C324.824005,186.922226 325.992706,188.947250 327.511810,191.451538 
	C329.447845,194.643188 328.631348,199.504532 328.481384,204.056580 
	C323.399139,204.665161 318.836853,204.863312 314.274597,205.061462 
	C314.205841,202.234238 313.754089,199.345016 314.198334,196.600815 
	C314.512726,194.658783 315.637268,191.833969 317.102661,191.287735 
	C321.049774,189.816406 321.150574,187.115158 321.126648,183.780518 
	C321.028748,170.127213 321.072693,156.472916 321.038940,142.819046 
	C321.035034,141.236725 320.872742,139.654800 320.783691,138.069687 
	C312.952179,143.405838 305.727783,148.965363 297.908600,153.499176 
	C287.506226,159.530823 276.097717,162.405319 263.938141,161.208817 
	C261.386536,160.957718 260.152100,161.718719 260.153290,164.364288 
	C260.159607,178.683990 260.109589,193.003799 260.168732,207.323196 
	C260.173126,208.382187 260.567352,209.955399 261.316254,210.413605 
	C267.134552,213.973297 266.277740,219.217270 264.602112,224.884827 
	C260.076263,225.248901 256.144470,225.307297 252.212692,225.365692 
	C252.288773,219.941925 250.022629,213.982208 256.289795,210.028656 
	C257.168762,209.474167 256.958374,206.923111 256.963593,205.295303 
	C257.010468,190.652328 256.978333,176.009125 257.011841,161.366074 
	C257.016205,159.451584 257.260437,157.537674 257.397156,155.571976 
	C270.798920,160.808899 282.873932,156.892975 294.053864,151.306046 
	C316.328369,140.174866 331.421173,121.902092 341.861511,99.195999 
	C344.570221,93.387604 347.260803,87.945534 349.997253,82.116051 
z"/>
<path fill="#83202F" opacity="1.000000" stroke="none" 
	d="
M380.775391,100.350876 
	C380.956451,101.734276 380.692413,103.393456 381.341858,104.531288 
	C393.654236,126.103470 409.013702,144.683273 433.022278,153.823837 
	C439.286011,156.208572 446.261444,156.994888 452.995819,157.754852 
	C456.219482,158.118622 459.643524,156.706436 463.623199,155.980743 
	C463.738129,157.380753 463.997070,159.100983 464.002197,160.821991 
	C464.046204,175.652908 464.060577,190.484009 464.041534,205.315002 
	C464.038055,208.022354 464.233490,210.012772 467.112610,211.880768 
	C471.597931,214.790863 469.730713,219.958359 469.221893,224.778259 
	C464.598175,225.143082 460.440765,225.067734 456.283386,224.992371 
	C456.239960,219.744690 454.962341,214.244186 460.050415,210.194336 
	C460.840424,209.565552 460.886230,207.716995 460.891571,206.430893 
	C460.949158,192.603165 460.900543,178.774963 460.955902,164.947220 
	C460.966705,162.246719 459.977112,160.922501 457.150909,161.055618 
	C435.600342,162.070572 418.110260,153.059753 402.696014,138.941910 
	C402.218414,138.504471 401.644012,138.172760 400.399475,137.276840 
	C400.165253,139.149170 399.856293,140.483414 399.853149,141.818375 
	C399.819214,156.146072 399.860901,170.473953 399.809875,184.801544 
	C399.800507,187.430923 400.326599,189.187973 402.850983,190.921509 
	C407.495056,194.110657 406.140930,199.110168 404.618225,204.104950 
	C399.742737,204.636108 395.470612,204.780090 391.198517,204.924072 
	C391.127655,199.192551 389.813171,193.200394 395.515381,188.890244 
	C396.340546,188.266495 396.128815,186.063538 396.131531,184.590881 
	C396.161438,168.269669 396.238342,151.947006 396.014954,135.628662 
	C395.984222,133.383026 394.886719,130.755402 393.444519,128.989487 
	C383.461975,116.766319 375.545685,103.353676 369.519745,88.798409 
	C367.642090,84.263069 367.677673,83.931221 369.929260,81.948807 
	C372.440552,86.359825 374.712006,90.568420 377.135132,95.389381 
	C377.553619,96.341537 377.820435,96.681328 378.087250,97.021133 
	C378.087250,97.021133 378.014008,96.985573 378.017822,97.324791 
	C378.943054,98.594307 379.864471,99.524605 380.785858,100.454903 
	C380.785858,100.454903 380.755524,100.383957 380.775391,100.350876 
z"/>
<path fill="#393837" opacity="1.000000" stroke="none" 
	d="
M158.176270,364.999512 
	C158.173050,307.085602 158.173050,249.671692 158.173050,192.103607 
	C161.134689,191.136002 162.674911,192.170761 162.685913,195.584579 
	C162.707367,202.245148 162.858536,208.905258 162.887985,215.565857 
	C163.170044,279.344879 163.437897,343.124023 163.709381,406.903107 
	C163.712921,407.735718 163.994034,408.716156 163.652695,409.370392 
	C162.930481,410.754639 161.881851,411.968567 160.967133,413.252380 
	C160.055984,411.988770 158.384033,410.742310 158.355148,409.458832 
	C158.141647,399.972198 158.267120,390.478149 158.261734,380.986450 
	C158.258804,375.824127 158.208466,370.661835 158.176270,364.999512 
z"/>
<path fill="#383736" opacity="1.000000" stroke="none" 
	d="
M557.336243,314.000000 
	C557.564392,274.839325 557.772827,236.178528 558.062805,197.518341 
	C558.080261,195.192398 557.065125,191.820312 562.421509,191.825165 
	C562.421509,194.236023 562.424194,196.475693 562.421082,198.715363 
	C562.324219,268.539581 562.226868,338.363800 562.128540,408.188019 
	C562.127625,408.854553 562.354309,409.669861 562.054504,410.157227 
	C561.392395,411.233704 560.461853,412.145081 559.640747,413.123779 
	C558.702820,412.077698 557.185364,411.146118 556.951355,409.960999 
	C556.507385,407.713165 556.774353,405.319946 556.788452,402.987396 
	C556.966064,373.491577 557.151367,343.995789 557.336243,314.000000 
z"/>
<path fill="#2C2B2B" opacity="1.000000" stroke="none" 
	d="
M380.847534,100.130676 
	C379.864471,99.524605 378.943054,98.594307 378.035919,97.288315 
	C379.003204,97.877235 379.956207,98.841843 380.847534,100.130676 
z"/>
<path fill="#2C2B2B" opacity="1.000000" stroke="none" 
	d="
M378.076965,96.661438 
	C377.820435,96.681328 377.553619,96.341537 377.140381,95.708908 
	C377.351532,95.711296 377.709106,96.006516 378.076965,96.661438 
z"/>
<path fill="#E5D9C7" opacity="1.000000" stroke="none" 
	d="
M275.367004,359.287964 
	C278.692505,359.287964 282.017975,359.287964 286.077545,359.287964 
	C286.077545,354.157013 286.169861,349.395020 285.992462,344.643097 
	C285.960571,343.788025 284.969757,342.461487 284.163788,342.222504 
	C277.466766,340.236877 275.337128,335.308685 274.950592,328.937042 
	C274.152039,315.774292 276.664581,313.233673 289.821777,314.262024 
	C297.867065,314.890778 298.746185,315.917542 299.015991,323.989532 
	C299.264282,331.417358 299.017303,338.481598 290.921021,342.234253 
	C290.172974,342.580994 289.621490,344.112244 289.589691,345.112885 
	C289.447876,349.575378 289.528107,354.044952 289.528107,358.327911 
	C291.998230,359.022736 293.833466,359.538971 295.668732,360.055206 
	C295.665588,360.500214 295.662445,360.945221 295.659302,361.390228 
	C289.345947,364.051331 282.535004,362.573456 275.551056,362.452667 
	C275.234375,361.138123 275.300690,360.213043 275.367004,359.287964 
z"/>
<path fill="#E5D8C6" opacity="1.000000" stroke="none" 
	d="
M446.250732,362.772217 
	C432.280243,363.571777 429.305023,363.307770 424.712952,359.744568 
	C427.585663,359.403259 430.458405,359.061951 434.049500,358.635284 
	C434.049500,354.093811 434.214081,349.336060 433.915863,344.607483 
	C433.853394,343.617279 432.241119,342.395325 431.076538,341.861328 
	C426.105286,339.581726 423.925903,335.633545 423.725739,330.385101 
	C423.643341,328.224731 423.679474,326.059418 423.680298,323.896332 
	C423.683380,316.089844 424.874786,314.778229 432.833954,314.232208 
	C435.143768,314.073730 437.498169,314.112640 439.798370,314.366669 
	C443.794586,314.807983 446.250793,317.089966 446.382629,321.198639 
	C446.642670,329.300079 448.025604,337.865326 438.499542,342.443024 
	C437.800598,342.778900 437.461060,344.436462 437.432281,345.492584 
	C437.314850,349.799469 437.383362,354.111389 437.383362,358.818695 
	C440.133759,358.961273 442.575958,359.087891 445.506897,359.609680 
	C446.080658,360.927307 446.165710,361.849762 446.250732,362.772217 
z"/>
<path fill="#861F2E" opacity="1.000000" stroke="none" 
	d="
M366.736145,280.966339 
	C352.261230,286.591797 341.895874,278.901337 342.899139,263.899994 
	C343.263245,258.455811 347.129242,256.213989 350.706207,253.120132 
	C356.511749,248.098724 361.194244,249.299316 366.999512,253.222168 
	C380.049286,262.040436 380.279480,272.334320 366.736145,280.966339 
M362.855560,261.559540 
	C359.006805,259.216919 355.717987,260.013916 353.477631,263.760162 
	C351.624695,266.858704 352.286957,269.950500 355.121979,272.245911 
	C358.035553,274.604889 361.104126,274.295074 363.661316,271.708771 
	C366.798645,268.535736 366.481384,265.191833 362.855560,261.559540 
z"/>
<path fill="#861F2E" opacity="1.000000" stroke="none" 
	d="
M348.581360,287.615021 
	C348.901031,297.317078 343.969666,303.276581 334.277557,305.388977 
	C327.560913,306.852875 318.415802,301.817627 315.861969,294.730743 
	C315.026001,292.411072 314.973572,289.373810 315.695038,287.010345 
	C317.795746,280.128326 326.232361,273.902161 332.455505,274.030670 
	C340.277588,274.192200 345.692902,278.643677 348.581360,287.615021 
M330.156464,283.506256 
	C324.570374,286.785095 323.359589,292.104645 327.939514,294.576508 
	C329.890961,295.629791 333.498779,295.795654 335.134705,294.639587 
	C336.775970,293.479675 337.737885,290.078918 337.489044,287.826965 
	C337.125183,284.534607 334.364410,282.979095 330.156464,283.506256 
z"/>
<path fill="#861F2E" opacity="1.000000" stroke="none" 
	d="
M394.843628,278.249268 
	C404.420227,279.365479 407.236908,286.781281 410.445953,293.730774 
	C410.793396,294.483246 410.484406,295.714111 410.135345,296.584991 
	C407.503998,303.150482 399.229645,307.727112 391.358856,307.059998 
	C384.411469,306.471161 379.998627,302.072113 378.074982,294.252991 
	C377.701019,292.733002 376.377136,291.403961 375.351227,290.096954 
	C373.741089,288.045532 371.422974,286.295135 370.611572,283.992035 
	C370.269043,283.019806 372.992279,279.686584 374.325470,279.684540 
	C376.737152,279.680786 379.155518,281.362305 381.559326,282.368286 
	C381.847321,282.488770 382.062134,282.784088 381.748138,282.513489 
	C386.238312,280.999908 390.342438,279.616455 394.843628,278.249268 
M397.170898,297.802887 
	C400.977875,293.341187 400.667389,288.729736 396.113007,287.483948 
	C394.058899,286.922058 390.504944,287.373199 389.456848,288.752106 
	C388.189270,290.419800 388.031311,293.891907 388.878235,295.980988 
	C390.156921,299.135010 393.273132,299.720642 397.170898,297.802887 
z"/>
<path fill="#E9DAC8" opacity="1.000000" stroke="none" 
	d="
M252.028961,225.635895 
	C256.144470,225.307297 260.076263,225.248901 264.457397,225.286652 
	C269.940247,228.798737 272.734619,233.386917 272.145630,239.625183 
	C271.616333,245.231430 267.466248,250.511322 262.648163,251.916016 
	C257.659302,253.370468 251.868698,251.462387 248.465668,247.079666 
	C244.716660,242.251389 244.539291,236.961243 247.257339,231.692902 
	C248.364792,229.546341 250.291336,227.822372 252.028961,225.635895 
z"/>
<path fill="#E9DAC8" opacity="1.000000" stroke="none" 
	d="
M456.131836,225.319305 
	C460.440765,225.067734 464.598175,225.143082 469.186493,225.246902 
	C471.805969,228.492432 474.872620,231.433350 475.990234,234.987213 
	C477.983093,241.324203 474.664551,248.103775 469.413788,250.794373 
	C464.132538,253.500595 457.198059,252.292328 453.336884,247.993057 
	C449.061829,243.233002 448.667084,235.397171 452.508698,229.861008 
	C453.542847,228.370712 454.816528,227.046616 456.131836,225.319305 
z"/>
<path fill="#E8D8C7" opacity="1.000000" stroke="none" 
	d="
M314.086426,205.360077 
	C318.836853,204.863312 323.399139,204.665161 328.419586,204.494598 
	C333.784760,208.595764 336.983032,213.386597 335.154205,220.135040 
	C333.716187,225.441437 330.178467,228.788315 324.863403,229.882126 
	C319.538788,230.977905 314.887451,229.345612 311.586761,224.942963 
	C308.212006,220.441528 307.655151,215.445465 310.290833,210.386475 
	C311.193329,208.654236 312.679077,207.225876 314.086426,205.360077 
z"/>
<path fill="#871E2E" opacity="1.000000" stroke="none" 
	d="
M360.345886,311.294281 
	C357.729858,313.885925 355.517426,316.405731 352.975983,318.532288 
	C347.573425,323.052917 339.249695,320.926758 336.911865,314.294250 
	C336.385956,312.802216 337.035126,310.254120 338.105347,309.040558 
	C338.992615,308.034515 341.397614,307.781982 342.944275,308.099945 
	C344.633636,308.447266 346.032349,310.021820 347.703033,310.707458 
	C348.963257,311.224640 350.911743,311.811584 351.715454,311.222870 
	C352.589111,310.582886 352.790894,308.613007 352.760193,307.234680 
	C352.690308,304.094574 351.971161,300.946564 352.113953,297.829163 
	C352.338074,292.935272 356.026733,288.381378 360.264038,287.574310 
	C364.821442,286.706268 367.759583,289.359680 370.208374,292.779816 
	C375.562958,300.258301 374.911621,302.941498 366.896790,307.087738 
	C364.702881,308.222717 362.694122,309.715607 360.345886,311.294281 
z"/>
<path fill="#E9DAC8" opacity="1.000000" stroke="none" 
	d="
M390.983551,205.209167 
	C395.470612,204.780090 399.742737,204.636108 404.476562,204.518799 
	C412.080688,210.636551 413.883606,217.439865 409.948883,223.695831 
	C406.890808,228.557938 402.301697,230.649933 396.765442,229.863693 
	C391.282532,229.085022 387.307159,226.061279 385.702545,220.430923 
	C383.942047,214.253494 385.754272,209.345123 390.983551,205.209167 
z"/>
<path fill="#E4D7C5" opacity="1.000000" stroke="none" 
	d="
M467.075775,357.966156 
	C467.033875,355.304962 466.833374,352.634552 466.986725,349.984680 
	C467.225128,345.865509 466.914703,342.556000 462.518860,340.119476 
	C458.684326,337.993988 457.505981,329.394348 459.757141,325.466949 
	C460.330170,324.467224 461.621704,323.601959 462.757233,323.269318 
	C464.320343,322.811371 466.136871,322.521118 467.688934,322.864136 
	C471.218353,323.644196 476.183075,323.800720 477.783478,326.125305 
	C480.494690,330.063263 479.486694,336.094238 475.618225,338.842224 
	C470.022369,342.817261 470.461884,347.788574 470.571777,353.185852 
	C470.598724,354.509918 470.396545,355.838654 469.824280,357.569885 
	C468.591156,357.971741 467.833466,357.968964 467.075775,357.966156 
z"/>
<path fill="#E4D7C5" opacity="1.000000" stroke="none" 
	d="
M253.004669,358.005707 
	C253.002136,355.185272 252.820267,352.350769 253.039810,349.547729 
	C253.355835,345.513245 252.861710,342.406097 248.589844,340.234680 
	C245.005127,338.412506 243.289078,328.665131 245.413269,325.168610 
	C246.004242,324.195831 247.438599,323.460968 248.618820,323.185181 
	C250.370575,322.775787 252.255646,322.666840 254.057190,322.797974 
	C257.547333,323.052063 261.683624,321.927643 263.616302,326.302216 
	C265.195374,329.876404 263.778259,338.150482 260.323517,340.070435 
	C255.779785,342.595612 256.119812,346.209015 256.208038,350.155579 
	C256.259888,352.476318 256.242615,354.798584 255.794144,357.557922 
	C254.556137,357.999023 253.780411,358.002350 253.004669,358.005707 
z"/>
<path fill="#822532" opacity="1.000000" stroke="none" 
	d="
M466.603577,357.982117 
	C467.833466,357.968964 468.591156,357.971741 469.729034,357.975128 
	C477.262634,358.005676 484.416351,358.008911 491.569275,358.085693 
	C493.217987,358.103394 494.943481,358.126343 496.480957,358.621185 
	C497.379242,358.910309 497.975159,360.138763 498.707123,360.944611 
	C497.920532,361.645935 497.229309,362.758972 496.328613,362.967529 
	C494.077454,363.488770 491.726898,363.867920 489.423828,363.831116 
	C475.298309,363.605377 461.174866,363.248169 446.650757,362.853485 
	C446.165710,361.849762 446.080658,360.927307 445.964050,359.660034 
	C452.665466,358.876190 459.398407,358.437134 466.603577,357.982117 
z"/>
<path fill="#822532" opacity="1.000000" stroke="none" 
	d="
M252.535538,358.014130 
	C253.780411,358.002350 254.556137,357.999023 255.721359,357.985840 
	C262.259369,358.296539 268.407928,358.617035 274.961731,359.112732 
	C275.300690,360.213043 275.234375,361.138123 275.085999,362.399506 
	C261.109100,362.982635 247.214630,363.253784 233.319077,363.450592 
	C231.172821,363.480988 228.987930,363.347168 226.886505,362.945801 
	C225.757721,362.730225 224.768433,361.784302 223.716187,361.167908 
	C224.711349,360.251801 225.611435,358.707367 226.719833,358.539642 
	C229.813004,358.071594 232.991592,358.105133 236.138016,358.066254 
	C241.446854,358.000702 246.756882,358.031982 252.535538,358.014130 
z"/>
<path fill="#83202F" opacity="1.000000" stroke="none" 
	d="
M397.161774,269.107086 
	C394.336487,271.127136 391.904999,273.744537 389.065918,274.307861 
	C386.727081,274.771912 382.930908,273.549225 381.534088,271.728668 
	C379.611938,269.223389 381.515289,266.173187 384.389069,264.868317 
	C387.198639,263.592621 390.249664,262.307404 393.257904,262.136078 
	C397.880737,261.872864 399.121979,264.288666 397.161774,269.107086 
z"/>
<path fill="#83202F" opacity="1.000000" stroke="none" 
	d="
M375.490051,319.727051 
	C371.987701,321.454010 368.271210,321.745148 366.938324,318.422943 
	C366.212280,316.613312 368.625641,313.409027 369.919983,310.992767 
	C370.412262,310.073761 371.737671,309.602234 372.680939,308.923401 
	C375.493286,306.899536 378.391388,306.724884 380.721649,309.395142 
	C383.153320,312.181671 381.366638,314.691132 379.354614,316.827759 
	C378.349304,317.895355 377.016571,318.654633 375.490051,319.727051 
z"/>
<path fill="#83202F" opacity="1.000000" stroke="none" 
	d="
M330.749939,315.534241 
	C327.436920,318.049774 324.395264,320.612427 320.900848,322.138031 
	C319.596954,322.707306 316.066101,321.252258 315.644958,320.010162 
	C315.082764,318.352142 315.982422,315.431213 317.305603,314.089752 
	C319.073792,312.297180 321.729248,311.031158 324.222900,310.384918 
	C327.921814,309.426270 330.944733,310.388550 330.749939,315.534241 
z"/>
<path fill="#861F2E" opacity="1.000000" stroke="none" 
	d="
M390.385681,311.715698 
	C392.939911,313.469574 395.500458,314.824554 397.197784,316.889160 
	C398.011078,317.878479 397.790222,320.662018 396.933014,321.802887 
	C396.147644,322.848114 393.661774,323.464478 392.307404,323.042664 
	C390.037994,322.335876 387.741272,320.971619 386.101135,319.264343 
	C385.091339,318.213257 384.464020,315.488373 385.127899,314.453613 
	C386.036163,313.037994 388.334747,312.514343 390.385681,311.715698 
z"/>
<path fill="#861F2E" opacity="1.000000" stroke="none" 
	d="
M333.436584,258.615387 
	C337.135925,259.566956 341.187744,259.940399 340.625549,264.752411 
	C340.263763,267.848938 334.785828,269.312744 330.874481,267.129852 
	C328.994537,266.080627 326.530212,263.599823 326.661926,261.953918 
	C326.916412,258.774048 329.841614,257.718536 333.436584,258.615387 
z"/>
<path fill="#30292A" opacity="1.000000" stroke="none" 
	d="
M363.152191,261.794189 
	C366.481384,265.191833 366.798645,268.535736 363.661316,271.708771 
	C361.104126,274.295074 358.035553,274.604889 355.121979,272.245911 
	C352.286957,269.950500 351.624695,266.858704 353.477631,263.760162 
	C355.717987,260.013916 359.006805,259.216919 363.152191,261.794189 
z"/>
<path fill="#30292A" opacity="1.000000" stroke="none" 
	d="
M330.522949,283.406311 
	C334.364410,282.979095 337.125183,284.534607 337.489044,287.826965 
	C337.737885,290.078918 336.775970,293.479675 335.134705,294.639587 
	C333.498779,295.795654 329.890961,295.629791 327.939514,294.576508 
	C323.359589,292.104645 324.570374,286.785095 330.522949,283.406311 
z"/>
<path fill="#30292A" opacity="1.000000" stroke="none" 
	d="
M396.826111,297.982605 
	C393.273132,299.720642 390.156921,299.135010 388.878235,295.980988 
	C388.031311,293.891907 388.189270,290.419800 389.456848,288.752106 
	C390.504944,287.373199 394.058899,286.922058 396.113007,287.483948 
	C400.667389,288.729736 400.977875,293.341187 396.826111,297.982605 
z"/>
</svg>